#!OML:ASF H:\Dans Jumps\Project 1\Capture day 1\Session 1\subject.ASF
:FULLY-SPECIFIED
:DEGREES
108
root 0.218691 16.6421 -15.8801 18.7134 -0.651536 -1.83488
lowerback 16.3706 -0.118972 0.702369
upperback 9.61966 -0.0522415 1.87816
thorax 1.05744 -0.0561907 1.58176
lowerneck -14.4598 0.677674 -0.505358
upperneck 18.5184 1.36703 -1.56776
head 8.13502 0.45011 -0.285941
rclavicle -1.43125e-014 -3.77691e-015
rhumerus -28.7488 -5.9956 -80.7806
rradius 33.7782
rwrist 19.261
rhand -19.4549 -26.1677
rfingers 7.12502
rthumb 6.86608 -56.0364
lclavicle -1.43125e-014 -3.77691e-015
lhumerus -27.8096 -7.00213 88.8338
lradius 27.9463
lwrist 22.1616
lhand -30.2161 -6.05239
lfingers 7.12502
lthumb -3.52618 23.8982
rfemur -48.6166 -3.08999 20.5168
rtibia 47.5928
rfoot -16.5483 -1.0206
rtoes 7.41534
lfemur -48.5459 8.97036 -21.4343
ltibia 47.1062
lfoot -15.8552 3.34424
ltoes 3.42149
109
root 0.222171 16.6102 -15.9043 18.8685 -0.653685 -1.81402
lowerback 16.5529 -0.102838 0.70282
upperback 9.6714 -0.0289444 1.88768
thorax 1.01784 -0.0451001 1.58892
lowerneck -14.4939 0.682519 -0.47816
upperneck 18.3013 1.37686 -1.63054
head 8.06936 0.45229 -0.310064
rclavicle 2.18663e-015 1.03368e-014
rhumerus -28.8726 -6.20121 -80.5523
rradius 33.5619
rwrist 19.4444
rhand -19.4077 -26.1583
rfingers 7.12502
rthumb 6.91161 -56.0255
lclavicle 2.18663e-015 1.03368e-014
lhumerus -27.8983 -6.89953 88.7919
lradius 27.6794
lwrist 22.0001
lhand -30.1502 -5.92436
lfingers 7.12502
lthumb -3.46249 24.0273
rfemur -49.1989 -3.10156 20.4991
rtibia 48.144
rfoot -16.6701 -1.06018
rtoes 7.29708
lfemur -49.125 8.93107 -21.5077
ltibia 47.6553
lfoot -15.9651 3.41673
ltoes 3.3793
110
root 0.22571 16.578 -15.9284 19.0172 -0.657621 -1.79247
lowerback 16.7399 -0.086317 0.705645
upperback 9.72429 -0.00482122 1.89466
thorax 0.977258 -0.033444 1.59189
lowerneck -14.5225 0.683378 -0.45538
upperneck 18.0794 1.38019 -1.68495
head 8.00114 0.452042 -0.331361
rclavicle 1.98785e-016 3.18055e-015
rhumerus -28.9925 -6.42538 -80.3232
rradius 33.3397
rwrist 19.6577
rhand -19.3756 -26.1305
rfingers 7.12502
rthumb 6.94263 -55.9967
lclavicle 1.98785e-016 3.18055e-015
lhumerus -27.981 -6.80765 88.7506
lradius 27.4101
lwrist 21.8388
lhand -30.0824 -5.78227
lfingers 7.12502
lthumb -3.39705 24.1704
rfemur -49.7752 -3.11865 20.4827
rtibia 48.6969
rfoot -16.7945 -1.09527
rtoes 7.1654
lfemur -49.6958 8.88267 -21.5768
ltibia 48.205
lfoot -16.0721 3.50484
ltoes 3.33628
111
root 0.229237 16.5453 -15.9524 19.1614 -0.665233 -1.77102
lowerback 16.9293 -0.0689535 0.707373
upperback 9.77869 0.0202128 1.9008
thorax 0.937199 -0.0213797 1.59439
lowerneck -14.5544 0.678487 -0.441333
upperneck 17.86 1.37562 -1.72965
head 7.93429 0.44842 -0.348805
rclavicle 7.7526e-015 1.19271e-015
rhumerus -29.1069 -6.65495 -80.0943
rradius 33.1165
rwrist 19.8909
rhand -19.3465 -26.1091
rfingers 7.12502
rthumb 6.97066 -55.9743
lclavicle 7.7526e-015 1.19271e-015
lhumerus -28.0567 -6.72406 88.7122
lradius 27.1399
lwrist 21.6767
lhand -30.0042 -5.61817
lfingers 7.12502
lthumb -3.32147 24.3357
rfemur -50.3478 -3.13419 20.4664
rtibia 49.2514
rfoot -16.9208 -1.13001
rtoes 7.03192
lfemur -50.2607 8.82968 -21.642
ltibia 48.7553
lfoot -16.1777 3.60471
ltoes 3.28569
112
root 0.232771 16.5125 -15.9761 19.2971 -0.680619 -1.75057
lowerback 17.1256 -0.0487856 0.70615
upperback 9.83444 0.0484849 1.90602
thorax 0.895167 -0.00783289 1.59699
lowerneck -14.5821 0.670101 -0.435522
upperneck 17.6364 1.36571 -1.7634
head 7.86523 0.442881 -0.361822
rclavicle 5.76476e-015 -8.74653e-015
rhumerus -29.2219 -6.8869 -79.8663
rradius 32.9018
rwrist 20.1282
rhand -19.3142 -26.0927
rfingers 7.12502
rthumb 7.00181 -55.9569
lclavicle 5.76476e-015 -8.74653e-015
lhumerus -28.1394 -6.65656 88.6793
lradius 26.8862
lwrist 21.5279
lhand -29.9301 -5.47873
lfingers 7.12502
lthumb -3.24995 24.4762
rfemur -50.911 -3.1456 20.4504
rtibia 49.8054
rfoot -17.0475 -1.16505
rtoes 6.88522
lfemur -50.8144 8.77923 -21.7044
ltibia 49.3063
lfoot -16.285 3.7131
ltoes 3.23326
113
root 0.236155 16.4792 -15.9998 19.4278 -0.704746 -1.7335
lowerback 17.3262 -0.0243197 0.703454
upperback 9.89095 0.0820526 1.9098
thorax 0.851807 0.00828959 1.59797
lowerneck -14.6119 0.659863 -0.429236
upperneck 17.4137 1.35243 -1.79371
head 7.79693 0.436112 -0.374107
rclavicle 5.96354e-016 -5.96354e-016
rhumerus -29.337 -7.11832 -79.6434
rradius 32.6986
rwrist 20.3617
rhand -19.2848 -26.0828
rfingers 7.12502
rthumb 7.03025 -55.946
lclavicle 5.96354e-016 -5.96354e-016
lhumerus -28.2265 -6.60324 88.6489
lradius 26.6542
lwrist 21.3998
lhand -29.8435 -5.31334
lfingers 7.12502
lthumb -3.16633 24.6429
rfemur -51.4697 -3.14665 20.4357
rtibia 50.3587
rfoot -17.1734 -1.20332
rtoes 6.74367
lfemur -51.3624 8.73488 -21.7626
ltibia 49.8586
lfoot -16.3933 3.8255
ltoes 3.18129
114
root 0.239432 16.4454 -16.0233 19.5556 -0.737369 -1.72125
lowerback 17.5285 0.00303887 0.701177
upperback 9.94625 0.119325 1.91145
thorax 0.806431 0.0262993 1.59573
lowerneck -14.6436 0.645979 -0.425509
upperneck 17.1988 1.3331 -1.81516
head 7.73149 0.427095 -0.383674
rclavicle -3.97569e-015 -8.74653e-015
rhumerus -29.4571 -7.33945 -79.4292
rradius 32.514
rwrist 20.573
rhand -19.2416 -26.0812
rfingers 7.12502
rthumb 7.07192 -55.9431
lclavicle -3.97569e-015 -8.74653e-015
lhumerus -28.3248 -6.56663 88.6199
lradius 26.4469
lwrist 21.2983
lhand -29.743 -5.1692
lfingers 7.12502
lthumb -3.06927 24.7885
rfemur -52.0255 -3.13836 20.4244
rtibia 50.9089
rfoot -17.2969 -1.24555
rtoes 6.59035
lfemur -51.9069 8.69919 -21.8163
ltibia 50.4117
lfoot -16.5029 3.93771
ltoes 3.13665
115
root 0.242534 16.4113 -16.0468 19.6815 -0.777285 -1.71155
lowerback 17.7313 0.0327432 0.697398
upperback 10.0005 0.159285 1.9101
thorax 0.759845 0.0456428 1.59056
lowerneck -14.6742 0.631134 -0.422485
upperneck 16.9843 1.31101 -1.82867
head 7.66601 0.417491 -0.390785
rclavicle -3.57812e-015 -6.55989e-015
rhumerus -29.5801 -7.55024 -79.2263
rradius 32.3454
rwrist 20.7647
rhand -19.1988 -26.0861
rfingers 7.12502
rthumb 7.11327 -55.9465
lclavicle -3.57812e-015 -6.55989e-015
lhumerus -28.4371 -6.55276 88.5955
lradius 26.2647
lwrist 21.2357
lhand -29.6379 -5.06173
lfingers 7.12502
lthumb -2.96779 24.8974
rfemur -52.5801 -3.12145 20.4146
rtibia 51.4553
rfoot -17.4157 -1.29369
rtoes 6.4212
lfemur -52.4496 8.67256 -21.8689
ltibia 50.964
lfoot -16.6118 4.049
ltoes 3.08961
116
root 0.24546 16.377 -16.0703 19.8038 -0.825542 -1.70529
lowerback 17.9372 0.0636887 0.690982
upperback 10.0534 0.200374 1.90626
thorax 0.710271 0.0654805 1.5839
lowerneck -14.7013 0.620303 -0.413242
upperneck 16.7733 1.29356 -1.84524
head 7.60129 0.410158 -0.399415
rclavicle -3.18055e-015 -1.39149e-015
rhumerus -29.7057 -7.74199 -79.0361
rradius 32.1918
rwrist 20.9281
rhand -19.1549 -26.1017
rfingers 7.12502
rthumb 7.15561 -55.9608
lclavicle -3.18055e-015 -1.39149e-015
lhumerus -28.5645 -6.56163 88.577
lradius 26.1065
lwrist 21.1983
lhand -29.5254 -4.95912
lfingers 7.12502
lthumb -2.85912 25.0015
rfemur -53.1299 -3.09558 20.4067
rtibia 51.9977
rfoot -17.5319 -1.34356
rtoes 6.24801
lfemur -52.9872 8.65698 -21.9196
ltibia 51.5151
lfoot -16.7215 4.15863
ltoes 3.03032
117
root 0.248152 16.3425 -16.0939 19.9251 -0.872354 -1.69948
lowerback 18.1431 0.0901152 0.679319
upperback 10.1052 0.234821 1.90368
thorax 0.660021 0.08176 1.58248
lowerneck -14.7254 0.61608 -0.4075
upperneck 16.5599 1.28609 -1.86355
head 7.53545 0.407198 -0.406956
rclavicle -2.18663e-015 -1.25234e-014
rhumerus -29.8279 -7.90418 -78.856
rradius 32.0505
rwrist 21.0733
rhand -19.1121 -26.1192
rfingers 7.12502
rthumb 7.19692 -55.9768
lclavicle -2.18663e-015 -1.25234e-014
lhumerus -28.7055 -6.58439 88.5682
lradius 25.9687
lwrist 21.182
lhand -29.418 -4.90648
lfingers 7.12502
lthumb -2.75541 25.0555
rfemur -53.6782 -3.07062 20.4007
rtibia 52.5386
rfoot -17.6486 -1.39277
rtoes 6.08559
lfemur -53.5244 8.64177 -21.9676
ltibia 52.0651
lfoot -16.8313 4.26512
ltoes 2.97837
118
root 0.250682 16.3075 -16.1174 20.0452 -0.921391 -1.69592
lowerback 18.3498 0.113853 0.663227
upperback 10.1565 0.265057 1.90216
thorax 0.60911 0.095717 1.58526
lowerneck -14.7519 0.618657 -0.401021
upperneck 16.346 1.28873 -1.88755
head 7.47012 0.408539 -0.415382
rclavicle -1.98785e-015 -7.35503e-015
rhumerus -29.9462 -8.041 -78.6841
rradius 31.9169
rwrist 21.2042
rhand -19.0813 -26.1068
rfingers 7.12502
rthumb 7.22664 -55.9634
lclavicle -1.98785e-015 -7.35503e-015
lhumerus -28.8568 -6.62198 88.5708
lradius 25.8445
lwrist 21.1703
lhand -29.338 -4.88992
lfingers 7.12502
lthumb -2.67818 25.073
rfemur -54.2265 -3.04413 20.3969
rtibia 53.0815
rfoot -17.7671 -1.43751
rtoes 5.94488
lfemur -54.0624 8.62923 -22.0118
ltibia 52.6176
lfoot -16.9442 4.37016
ltoes 2.93431
119
root 0.252878 16.2716 -16.1411 20.1658 -0.970296 -1.694
lowerback 18.5569 0.134224 0.639421
upperback 10.208 0.28974 1.90432
thorax 0.558517 0.106478 1.59714
lowerneck -14.7816 0.628058 -0.397778
upperneck 16.1284 1.30274 -1.91944
head 7.40436 0.414371 -0.424636
rclavicle 1.37161e-014 1.47101e-014
rhumerus -30.0566 -8.14137 -78.5213
rradius 31.7957
rwrist 21.3213
rhand -19.0574 -26.0796
rfingers 7.12502
rthumb 7.24974 -55.9354
lclavicle 1.37161e-014 1.47101e-014
lhumerus -29.0126 -6.66479 88.5856
lradius 25.7308
lwrist 21.1475
lhand -29.288 -4.89757
lfingers 7.12502
lthumb -2.62984 25.066
rfemur -54.7788 -3.01377 20.3934
rtibia 53.6307
rfoot -17.8901 -1.47824
rtoes 5.83507
lfemur -54.606 8.6171 -22.0522
ltibia 53.1758
lfoot -17.0608 4.47547
ltoes 2.88626
